<svg xmlns="http://www.w3.org/2000/svg" version="1.1" xmlns:xlink="http://www.w3.org/1999/xlink" xmlns:svgjs="http://svgjs.com/svgjs" width="1000" height="1000"><rect width="1000" height="1000" rx="0" ry="0" fill="#ffffff"></rect><g transform="matrix(0.9259259259259259,0,0,0.9259259259259259,0,0)"><svg xmlns="http://www.w3.org/2000/svg" version="1.1" xmlns:xlink="http://www.w3.org/1999/xlink" xmlns:svgjs="http://svgjs.com/svgjs" width="1080" height="1080"><svg width="1080" height="1080" viewBox="0 0 1080 1080" fill="none" xmlns="http://www.w3.org/2000/svg">
<rect width="1080" height="1080" fill="white"></rect>
<path d="M954.654 883.654C886.685 951.622 800.088 997.909 705.814 1016.66C611.539 1035.41 513.821 1025.79 425.016 989.005C336.211 952.221 260.308 889.929 206.906 810.007C153.503 730.085 125 636.122 125 540C125 443.878 153.503 349.915 206.906 269.993C260.308 190.071 336.211 127.779 425.016 90.9948C513.821 54.2106 611.539 44.5862 705.814 63.3386C800.088 82.091 886.685 128.378 954.653 196.346L782.827 368.173C748.843 334.189 705.544 311.045 658.407 301.669C611.269 292.293 562.41 297.105 518.008 315.497C473.605 333.889 435.654 365.035 408.953 404.997C382.252 444.958 368 491.939 368 540C368 588.061 382.252 635.042 408.953 675.004C435.654 714.965 473.605 746.111 518.008 764.503C562.41 782.895 611.269 787.707 658.407 778.331C705.544 768.955 748.843 745.811 782.827 711.827L954.654 883.654Z" fill="#173F73"></path>
</svg></svg></g></svg>